<svg xmlns="http://www.w3.org/2000/svg" xmlns:xlink="http://www.w3.org/1999/xlink" width="64" zoomAndPan="magnify" viewBox="0 0 48 48" height="64" preserveAspectRatio="xMidYMid meet" version="1.2"><defs><clipPath id="a74aab9282"><path d="M 0.488281 2 L 47.507812 2 L 47.507812 45 L 0.488281 45 Z M 0.488281 2 "/></clipPath><filter x="0%" y="0%" width="100%" filterUnits="objectBoundingBox" id="782cffafad" height="100%"><feColorMatrix values="0 0 0 0 1 0 0 0 0 1 0 0 0 0 1 0 0 0 1 0" type="matrix" in="SourceGraphic"/></filter><clipPath id="e951896472"><path d="M 1 0.9375 L 47 0.9375 L 47 42.082031 L 1 42.082031 Z M 1 0.9375 "/></clipPath><clipPath id="5a199d7caf"><rect x="0" width="48" y="0" height="43"/></clipPath><clipPath id="a799622319"><path d="M 3.296875 5.613281 L 44 5.613281 L 44 41.394531 L 3.296875 41.394531 Z M 3.296875 5.613281 "/></clipPath></defs><g id="78e459a96b"><g clip-rule="nonzero" clip-path="url(#a74aab9282)"><g mask="url(#a632572e14)" transform="matrix(1,0,0,1,0,2)"><g clip-path="url(#5a199d7caf)"><g clip-rule="nonzero" clip-path="url(#e951896472)"><path style=" stroke:none;fill-rule:nonzero;fill:#9a031e;fill-opacity:1;" d="M 41.410156 0.964844 L 6.78125 0.964844 C 6.539062 0.964844 6.296875 0.980469 6.054688 1.011719 C 5.816406 1.046875 5.578125 1.09375 5.34375 1.15625 C 5.109375 1.21875 4.882812 1.296875 4.65625 1.386719 C 4.433594 1.480469 4.21875 1.585938 4.007812 1.707031 C 3.796875 1.828125 3.597656 1.964844 3.402344 2.113281 C 3.210938 2.257812 3.03125 2.417969 2.859375 2.589844 C 2.6875 2.761719 2.527344 2.941406 2.378906 3.136719 C 2.234375 3.328125 2.097656 3.527344 1.976562 3.738281 C 1.855469 3.949219 1.75 4.164062 1.65625 4.386719 C 1.5625 4.613281 1.484375 4.839844 1.421875 5.074219 C 1.359375 5.308594 1.3125 5.546875 1.28125 5.785156 C 1.25 6.027344 1.234375 6.269531 1.234375 6.511719 C 1.230469 6.753906 1.246094 6.992188 1.28125 7.234375 C 1.3125 7.472656 1.359375 7.710938 1.421875 7.945312 C 1.484375 8.179688 1.558594 8.410156 1.652344 8.632812 C 1.746094 8.855469 1.851562 9.074219 1.972656 9.285156 L 19.277344 39.28125 C 19.398438 39.492188 19.53125 39.691406 19.679688 39.882812 C 19.828125 40.078125 19.988281 40.257812 20.160156 40.429688 C 20.332031 40.601562 20.511719 40.761719 20.703125 40.910156 C 20.898438 41.054688 21.097656 41.191406 21.308594 41.3125 C 21.519531 41.433594 21.734375 41.539062 21.960938 41.632812 C 22.183594 41.726562 22.414062 41.804688 22.648438 41.867188 C 22.882812 41.929688 23.117188 41.976562 23.359375 42.007812 C 23.597656 42.039062 23.839844 42.054688 24.082031 42.054688 C 24.324219 42.054688 24.566406 42.039062 24.808594 42.007812 C 25.046875 41.976562 25.285156 41.929688 25.519531 41.867188 C 25.753906 41.804688 25.984375 41.726562 26.207031 41.632812 C 26.429688 41.539062 26.648438 41.433594 26.859375 41.3125 C 27.070312 41.191406 27.269531 41.054688 27.460938 40.910156 C 27.65625 40.761719 27.835938 40.601562 28.007812 40.429688 C 28.179688 40.257812 28.339844 40.078125 28.488281 39.882812 C 28.632812 39.691406 28.769531 39.492188 28.890625 39.28125 L 45.949219 9.710938 C 46.640625 8.757812 46.980469 7.691406 46.964844 6.511719 C 46.964844 6.152344 46.929688 5.792969 46.859375 5.4375 C 46.789062 5.085938 46.6875 4.742188 46.550781 4.40625 C 46.410156 4.074219 46.242188 3.753906 46.042969 3.453125 C 45.84375 3.152344 45.617188 2.875 45.363281 2.617188 C 45.109375 2.359375 44.835938 2.128906 44.535156 1.925781 C 44.238281 1.722656 43.921875 1.550781 43.589844 1.410156 C 43.257812 1.269531 42.914062 1.160156 42.5625 1.085938 C 42.207031 1.011719 41.851562 0.972656 41.488281 0.96875 Z M 41.410156 0.964844 "/></g></g><mask id="a632572e14"><g filter="url(#782cffafad)"><rect x="0" width="48" y="0" height="48" style="fill:#000000;fill-opacity:0.85;stroke:none;"/></g></mask></g></g><g clip-rule="nonzero" clip-path="url(#a799622319)"><path style=" stroke:none;fill-rule:nonzero;fill:#9a031e;fill-opacity:1;" d="M 39.101562 5.640625 L 8.804688 5.640625 C 8.589844 5.640625 8.378906 5.65625 8.171875 5.683594 C 7.960938 5.710938 7.753906 5.75 7.546875 5.804688 C 7.34375 5.863281 7.144531 5.929688 6.945312 6.011719 C 6.75 6.089844 6.5625 6.183594 6.378906 6.292969 C 6.195312 6.398438 6.019531 6.515625 5.851562 6.644531 C 5.683594 6.773438 5.523438 6.914062 5.371094 7.0625 C 5.222656 7.210938 5.082031 7.371094 4.953125 7.539062 C 4.824219 7.707031 4.707031 7.882812 4.601562 8.066406 C 4.496094 8.25 4.402344 8.441406 4.320312 8.636719 C 4.238281 8.832031 4.171875 9.03125 4.117188 9.238281 C 4.0625 9.441406 4.019531 9.648438 3.992188 9.859375 C 3.964844 10.070312 3.949219 10.28125 3.949219 10.492188 C 3.949219 10.703125 3.964844 10.914062 3.992188 11.125 C 4.019531 11.335938 4.058594 11.542969 4.113281 11.75 C 4.167969 11.953125 4.238281 12.152344 4.316406 12.347656 C 4.398438 12.546875 4.492188 12.734375 4.597656 12.917969 L 19.738281 39.164062 C 19.84375 39.347656 19.960938 39.523438 20.089844 39.691406 C 20.21875 39.859375 20.359375 40.019531 20.507812 40.167969 C 20.660156 40.320312 20.820312 40.460938 20.988281 40.589844 C 21.15625 40.71875 21.332031 40.835938 21.515625 40.941406 C 21.699219 41.046875 21.890625 41.140625 22.085938 41.222656 C 22.28125 41.304688 22.480469 41.371094 22.6875 41.425781 C 22.890625 41.480469 23.097656 41.523438 23.308594 41.550781 C 23.519531 41.578125 23.730469 41.589844 23.941406 41.589844 C 24.15625 41.589844 24.367188 41.578125 24.578125 41.550781 C 24.789062 41.523438 24.996094 41.480469 25.199219 41.425781 C 25.40625 41.371094 25.605469 41.304688 25.800781 41.222656 C 25.996094 41.140625 26.1875 41.046875 26.371094 40.941406 C 26.554688 40.835938 26.730469 40.71875 26.898438 40.589844 C 27.066406 40.460938 27.226562 40.320312 27.375 40.167969 C 27.527344 40.019531 27.667969 39.859375 27.796875 39.691406 C 27.925781 39.523438 28.042969 39.347656 28.148438 39.164062 L 43.074219 13.292969 C 43.679688 12.460938 43.976562 11.527344 43.960938 10.492188 C 43.960938 10.179688 43.929688 9.863281 43.871094 9.554688 C 43.808594 9.246094 43.71875 8.945312 43.597656 8.652344 C 43.480469 8.359375 43.332031 8.082031 43.15625 7.816406 C 42.984375 7.554688 42.785156 7.308594 42.5625 7.085938 C 42.339844 6.859375 42.097656 6.660156 41.835938 6.480469 C 41.578125 6.304688 41.300781 6.152344 41.007812 6.03125 C 40.71875 5.90625 40.417969 5.8125 40.109375 5.746094 C 39.800781 5.683594 39.488281 5.648438 39.171875 5.644531 Z M 39.101562 5.640625 "/></g></g></svg>