<svg xmlns="http://www.w3.org/2000/svg" xmlns:xlink="http://www.w3.org/1999/xlink" width="64" zoomAndPan="magnify" viewBox="0 0 48 48" height="64" preserveAspectRatio="xMidYMid meet" version="1.2"><defs><clipPath id="1ee16d1039"><path d="M 0.488281 2 L 47.507812 2 L 47.507812 45 L 0.488281 45 Z M 0.488281 2 "/></clipPath><filter x="0%" y="0%" width="100%" filterUnits="objectBoundingBox" id="cf7a5ee640" height="100%"><feColorMatrix values="0 0 0 0 1 0 0 0 0 1 0 0 0 0 1 0 0 0 1 0" type="matrix" in="SourceGraphic"/></filter><clipPath id="044c193bcf"><path d="M 1 0.9375 L 47 0.9375 L 47 42.082031 L 1 42.082031 Z M 1 0.9375 "/></clipPath><clipPath id="9fe47dade7"><rect x="0" width="48" y="0" height="43"/></clipPath><clipPath id="64bdfd61cd"><path d="M 4 5.566406 L 44.636719 5.566406 L 44.636719 41.566406 L 4 41.566406 Z M 4 5.566406 "/></clipPath></defs><g id="3b32bd9e0d"><g clip-rule="nonzero" clip-path="url(#1ee16d1039)"><g mask="url(#3043b31765)" transform="matrix(1,0,0,1,0,2)"><g clip-path="url(#9fe47dade7)"><g clip-rule="nonzero" clip-path="url(#044c193bcf)"><path style=" stroke:none;fill-rule:nonzero;fill:#177891;fill-opacity:1;" d="M 41.410156 42.054688 L 6.78125 42.054688 C 6.539062 42.054688 6.296875 42.039062 6.054688 42.007812 C 5.816406 41.976562 5.578125 41.929688 5.34375 41.867188 C 5.109375 41.800781 4.882812 41.726562 4.65625 41.632812 C 4.433594 41.539062 4.21875 41.433594 4.007812 41.3125 C 3.796875 41.191406 3.597656 41.054688 3.402344 40.910156 C 3.210938 40.761719 3.03125 40.601562 2.859375 40.429688 C 2.6875 40.257812 2.527344 40.078125 2.378906 39.886719 C 2.234375 39.691406 2.097656 39.492188 1.976562 39.28125 C 1.855469 39.074219 1.75 38.855469 1.65625 38.632812 C 1.5625 38.40625 1.484375 38.179688 1.421875 37.945312 C 1.359375 37.710938 1.3125 37.472656 1.28125 37.234375 C 1.25 36.992188 1.234375 36.753906 1.234375 36.511719 C 1.230469 36.269531 1.246094 36.027344 1.28125 35.785156 C 1.3125 35.546875 1.359375 35.308594 1.421875 35.074219 C 1.484375 34.839844 1.558594 34.613281 1.652344 34.386719 C 1.746094 34.164062 1.851562 33.945312 1.972656 33.738281 L 19.277344 3.738281 C 19.398438 3.527344 19.53125 3.328125 19.679688 3.136719 C 19.828125 2.945312 19.988281 2.761719 20.160156 2.589844 C 20.332031 2.417969 20.511719 2.257812 20.703125 2.113281 C 20.898438 1.964844 21.097656 1.828125 21.308594 1.707031 C 21.519531 1.585938 21.734375 1.480469 21.960938 1.386719 C 22.183594 1.292969 22.414062 1.21875 22.648438 1.15625 C 22.882812 1.089844 23.117188 1.042969 23.359375 1.011719 C 23.597656 0.980469 23.839844 0.964844 24.082031 0.964844 C 24.324219 0.964844 24.566406 0.980469 24.808594 1.011719 C 25.046875 1.042969 25.285156 1.089844 25.519531 1.15625 C 25.753906 1.21875 25.984375 1.292969 26.207031 1.386719 C 26.429688 1.480469 26.648438 1.585938 26.859375 1.707031 C 27.070312 1.828125 27.269531 1.964844 27.460938 2.113281 C 27.65625 2.257812 27.835938 2.417969 28.007812 2.589844 C 28.179688 2.761719 28.339844 2.945312 28.488281 3.136719 C 28.632812 3.328125 28.769531 3.527344 28.890625 3.738281 L 45.949219 33.308594 C 46.640625 34.261719 46.980469 35.328125 46.964844 36.507812 C 46.964844 36.867188 46.929688 37.226562 46.859375 37.582031 C 46.789062 37.933594 46.6875 38.28125 46.550781 38.613281 C 46.410156 38.949219 46.242188 39.265625 46.042969 39.566406 C 45.84375 39.867188 45.617188 40.144531 45.363281 40.402344 C 45.109375 40.660156 44.835938 40.890625 44.535156 41.09375 C 44.238281 41.296875 43.921875 41.46875 43.589844 41.609375 C 43.257812 41.75 42.914062 41.859375 42.5625 41.933594 C 42.207031 42.007812 41.851562 42.046875 41.488281 42.050781 Z M 41.410156 42.054688 "/></g></g><mask id="3043b31765"><g filter="url(#cf7a5ee640)"><rect x="0" width="48" y="0" height="48" style="fill:#000000;fill-opacity:0.85;stroke:none;"/></g></mask></g></g><g clip-rule="nonzero" clip-path="url(#64bdfd61cd)"><path style=" stroke:none;fill-rule:nonzero;fill:#177891;fill-opacity:1;" d="M 39.179688 41.429688 L 8.976562 41.429688 C 8.765625 41.429688 8.554688 41.414062 8.34375 41.386719 C 8.136719 41.359375 7.929688 41.320312 7.726562 41.265625 C 7.519531 41.210938 7.320312 41.140625 7.125 41.058594 C 6.929688 40.980469 6.742188 40.886719 6.558594 40.78125 C 6.375 40.675781 6.199219 40.558594 6.03125 40.429688 C 5.863281 40.300781 5.707031 40.160156 5.554688 40.011719 C 5.40625 39.863281 5.269531 39.703125 5.140625 39.535156 C 5.011719 39.367188 4.894531 39.195312 4.789062 39.011719 C 4.683594 38.828125 4.589844 38.636719 4.507812 38.445312 C 4.425781 38.25 4.359375 38.046875 4.304688 37.84375 C 4.25 37.640625 4.207031 37.433594 4.179688 37.222656 C 4.152344 37.015625 4.136719 36.804688 4.136719 36.59375 C 4.136719 36.382812 4.152344 36.171875 4.179688 35.960938 C 4.207031 35.75 4.246094 35.542969 4.300781 35.339844 C 4.355469 35.136719 4.425781 34.9375 4.503906 34.742188 C 4.585938 34.546875 4.679688 34.355469 4.785156 34.171875 L 19.875 8.007812 C 19.980469 7.828125 20.097656 7.652344 20.226562 7.484375 C 20.355469 7.316406 20.496094 7.15625 20.644531 7.007812 C 20.796875 6.859375 20.953125 6.71875 21.121094 6.589844 C 21.289062 6.460938 21.464844 6.34375 21.648438 6.238281 C 21.832031 6.132812 22.019531 6.039062 22.214844 5.957031 C 22.410156 5.878906 22.613281 5.808594 22.816406 5.753906 C 23.019531 5.699219 23.226562 5.660156 23.4375 5.632812 C 23.648438 5.605469 23.855469 5.589844 24.070312 5.589844 C 24.28125 5.589844 24.492188 5.605469 24.699219 5.632812 C 24.910156 5.660156 25.117188 5.699219 25.320312 5.753906 C 25.527344 5.808594 25.726562 5.878906 25.921875 5.957031 C 26.117188 6.039062 26.304688 6.132812 26.488281 6.238281 C 26.671875 6.34375 26.847656 6.460938 27.015625 6.589844 C 27.183594 6.71875 27.34375 6.859375 27.492188 7.007812 C 27.640625 7.15625 27.78125 7.316406 27.910156 7.484375 C 28.039062 7.652344 28.15625 7.828125 28.261719 8.007812 L 43.140625 33.800781 C 43.746094 34.632812 44.039062 35.5625 44.027344 36.589844 C 44.027344 36.90625 43.996094 37.21875 43.933594 37.527344 C 43.875 37.835938 43.785156 38.136719 43.664062 38.425781 C 43.542969 38.71875 43.398438 38.996094 43.222656 39.257812 C 43.050781 39.519531 42.851562 39.765625 42.632812 39.988281 C 42.410156 40.210938 42.167969 40.414062 41.90625 40.589844 C 41.648438 40.765625 41.371094 40.917969 41.082031 41.039062 C 40.792969 41.164062 40.492188 41.257812 40.183594 41.324219 C 39.878906 41.386719 39.566406 41.421875 39.25 41.425781 Z M 39.179688 41.429688 "/></g></g></svg>